<?xml version="1.0" encoding="UTF-8" standalone="no"?>
<!-- Created with Inkscape (http://www.inkscape.org/) -->

<svg
   xmlns:dc="http://purl.org/dc/elements/1.1/"
   xmlns:cc="http://creativecommons.org/ns#"
   xmlns:rdf="http://www.w3.org/1999/02/22-rdf-syntax-ns#"
   xmlns:svg="http://www.w3.org/2000/svg"
   xmlns="http://www.w3.org/2000/svg"
   xmlns:sodipodi="http://sodipodi.sourceforge.net/DTD/sodipodi-0.dtd"
   xmlns:inkscape="http://www.inkscape.org/namespaces/inkscape"
   id="svg3406"
   version="1.1"
   inkscape:version="0.91 r13725"
   width="774"
   height="599"
   viewBox="0 0 774 599"
   sodipodi:docname="awox.svg">
  <metadata
     id="metadata3412">
    <rdf:RDF>
      <cc:Work
         rdf:about="">
        <dc:format>image/svg+xml</dc:format>
        <dc:type
           rdf:resource="http://purl.org/dc/dcmitype/StillImage" />
        <dc:title></dc:title>
      </cc:Work>
    </rdf:RDF>
  </metadata>
  <defs
     id="defs3410" />
  <sodipodi:namedview
     pagecolor="#ffffff"
     bordercolor="#666666"
     borderopacity="1"
     objecttolerance="10"
     gridtolerance="10"
     guidetolerance="10"
     inkscape:pageopacity="0"
     inkscape:pageshadow="2"
     inkscape:window-width="1855"
     inkscape:window-height="1056"
     id="namedview3408"
     showgrid="false"
     inkscape:zoom="1.5342237"
     inkscape:cx="387"
     inkscape:cy="299.5"
     inkscape:window-x="65"
     inkscape:window-y="24"
     inkscape:window-maximized="1"
     inkscape:current-layer="svg3406" />
  <path
     style="fill:#b7d44a"
     d="m 380.23711,579.01872 c -26.98715,-1.84535 -49.37683,-9.54357 -62.7645,-21.58024 -25.11937,-22.58448 -2.63388,-50.1294 48.10725,-58.93177 13.65925,-2.36955 41.17939,-2.34086 55.39622,0.0577 20.37243,3.43716 36.87509,10.27579 47.20145,19.56007 13.76999,12.38041 14.27124,25.1005 1.49622,37.96917 -16.46479,16.58552 -51.35558,25.52898 -89.43664,22.92502 z m 25.30563,-23.10488 c 28.13502,-4.56569 37.4826,-20.69987 17.77783,-30.68503 -6.92708,-3.51023 -20.98585,-6.44267 -30.88748,-6.44267 -15.88441,0 -33.61135,5.72241 -39.01748,12.59518 -11.59638,14.74242 20.21089,29.71183 52.12713,24.53252 z M 150.95331,578.00478 C 111.86976,575.88852 82.853551,568.3786 74.248591,558.15219 l -3.009538,-3.57664 0.307002,-35.60791 0.307013,-35.60792 20.240587,-0.31869 c 15.415465,-0.24271 20.464525,0.0341 21.179995,1.16152 0.51666,0.81412 0.95111,11.41123 0.96544,23.54913 0.0143,12.1379 0.36199,25.62636 0.77259,29.97437 0.72259,7.65175 0.88261,7.97487 4.98605,10.06829 11.03655,5.63042 40.04108,8.68124 74.39589,7.82527 25.71623,-0.64074 33.19477,-2.00556 39.18234,-7.15067 l 3.21321,-2.76111 0.58076,-23.04341 0.58076,-23.04339 22.06891,0 22.06892,0 0.31248,26.54213 c 0.29312,24.8972 0.16723,26.77718 -2.03153,30.33486 -3.88224,6.28158 -15.14786,12.41941 -29.64204,16.14985 -19.81602,5.10012 -62.34553,7.38355 -99.77412,5.35691 z M 499.26825,576.822 c -1.07482,-1.73908 -2.36205,-0.80477 25.57833,-18.56541 25.48341,-16.19884 28.45729,-18.28045 28.45729,-19.91903 0,-0.54777 -2.87477,-2.83489 -6.38837,-5.08252 -3.5136,-2.24763 -6.38837,-4.53226 -6.38837,-5.07695 0,-2.05409 6.28954,-2.39153 44.86378,-2.40697 39.22815,-0.0157 47.47656,0.42886 46.20262,2.49013 -0.36086,0.58389 -4.0373,3.19703 -8.16985,5.80697 -4.66265,2.94474 -7.38153,5.41165 -7.1653,6.50128 0.19164,0.96576 12.5035,9.12676 27.35969,18.13555 14.85619,9.0088 26.83358,16.91025 26.61642,17.55879 -0.25035,0.74768 -9.28405,1.17915 -24.68821,1.17915 l -24.29338,0 -16.73941,-10.16332 c -9.20668,-5.58982 -17.22305,-10.16331 -17.81415,-10.16331 -0.5911,0 -8.73891,4.57349 -18.10624,10.16331 l -17.03151,10.16332 -25.73763,0.35136 c -18.34806,0.25048 -25.97251,-0.0287 -26.55571,-0.97235 z M 155.39807,548.6034 c -0.32583,-0.84911 -0.4401,-6.20663 -0.25392,-11.9056 l 0.33849,-10.36177 20.75541,-0.31775 c 14.32352,-0.21928 21.25243,0.0948 22.35929,1.01337 1.65964,1.37737 2.3415,17.51883 0.89886,21.27829 -0.6076,1.58338 -3.66255,1.83729 -22.10537,1.83729 -16.72838,0 -21.52967,-0.33704 -21.99276,-1.54383 z m 359.65522,-35.99291 c -8.58049,-5.2843 -15.81097,-10.238 -16.06772,-11.00826 -0.35573,-1.06718 6.21912,-1.40044 27.62904,-1.40044 l 28.09586,0 14.99591,9.29217 c 8.24776,5.1107 15.90222,9.2911 17.00992,9.28978 1.10769,-10e-4 15.34245,-8.49494 31.63279,-18.87473 l 29.61881,-18.87233 22.57759,-0.36152 c 12.41768,-0.19883 23.8322,-0.0466 25.36561,0.33824 2.36246,0.59294 2.56075,0.97358 1.2991,2.49377 -0.8189,0.98672 -13.91399,10.11217 -29.1002,20.27878 l -27.61129,18.48475 -54.92226,-0.0263 -54.92226,-0.0263 -15.6009,-9.60779 z M 76.338494,476.39074 c -0.4127,-1.07548 12.02117,-20.96559 32.493006,-51.9781 18.23883,-27.62979 52.98356,-80.29035 77.21049,-117.02348 l 44.04898,-66.78751 74.20193,-0.28904 c 40.81106,-0.15898 74.87783,-0.54324 75.70392,-0.85392 1.16271,-0.43725 1.20391,-1.12185 0.18239,-3.03056 -0.72579,-1.35614 -20.94661,-32.33298 -44.93518,-68.8374 C 311.25547,131.08629 287.33485,94.685473 282.08709,86.700015 245.79463,31.474167 238.53145,20.249589 238.53145,19.388843 c 0,-0.533542 0.82677,-1.287341 1.83728,-1.675108 1.0105,-0.387767 38.58591,-0.705031 83.50089,-0.705031 76.11541,0 81.82147,0.138099 83.98706,2.032663 1.27789,1.117965 22.69139,33.916438 47.58556,72.885491 24.89417,38.969062 73.38546,114.758362 107.75842,168.420672 34.37297,53.6623 65.98345,103.05602 70.2455,109.76381 4.26206,6.70779 20.80139,32.58069 36.75405,57.49533 15.95265,24.91464 29.43452,46.01115 29.95969,46.88111 0.58838,0.97467 0.3405,1.97091 -0.64584,2.59564 -0.90126,0.57086 -137.25763,1.02166 -312.05388,1.03167 -274.88556,0.0158 -310.529763,-0.1818 -311.121686,-1.72435 z M 461.53271,364.33507 c 1.50594,-0.9521 1.43835,-1.59248 -0.5192,-4.91869 -4.30873,-7.32124 -74.01382,-113.01895 -75.64709,-114.70792 -1.44417,-1.49338 -1.84386,-1.49338 -3.27755,0 -1.23414,1.28552 -55.18161,88.81559 -70.73592,114.7694 -1.94718,3.24905 -2.06131,4.05478 -0.69674,4.91868 2.22806,1.41058 148.6425,1.35093 150.8765,-0.0614 z"
     id="path3416"
     inkscape:connector-curvature="0" />
</svg>
